<svg width="180" height="180" viewBox="0 0 180 180" xmlns="http://www.w3.org/2000/svg">
  <defs>
    <linearGradient id="bg" x1="0" y1="0" x2="0" y2="1">
      <stop offset="0" stop-color="#1a2030"/>
      <stop offset="1" stop-color="#0a0e16"/>
    </linearGradient>
  </defs>
  <rect width="180" height="180" fill="url(#bg)" rx="32"/>
  <g transform="translate(7,7) scale(7.0833)">
    <g fill="#f59e0b">
      <ellipse cx="9.5" cy="3" rx="1.4" ry="1.3"/>
      <ellipse cx="14.5" cy="3" rx="1.4" ry="1.3"/>
      <ellipse cx="12" cy="5" rx="2.9" ry="2.5"/>
      <ellipse cx="12" cy="7.3" rx="2.1" ry="1.6"/>
      <path d="M 9 8.6 Q 12 8 15 8.6 L 14.5 10.5 L 9.5 10.5 Z"/>
      <circle cx="4.5" cy="10.5" r="2.3"/>
      <circle cx="19.5" cy="10.5" r="2.3"/>
      <ellipse cx="12" cy="10.2" rx="5.5" ry="1.6"/>
      <ellipse cx="4" cy="13.5" rx="2.2" ry="2.4"/>
      <ellipse cx="20" cy="13.5" rx="2.2" ry="2.4"/>
      <ellipse cx="4" cy="17.5" rx="1.8" ry="2.2"/>
      <ellipse cx="20" cy="17.5" rx="1.8" ry="2.2"/>
      <circle cx="4" cy="20.5" r="1.5"/>
      <circle cx="20" cy="20.5" r="1.5"/>
      <ellipse cx="12" cy="13.5" rx="6.4" ry="3.3"/>
      <path d="M 6.5 14 L 8 20 L 16 20 L 17.5 14 Z"/>
      <ellipse cx="9.4" cy="21.8" rx="2.8" ry="2.5"/>
      <ellipse cx="14.6" cy="21.8" rx="2.8" ry="2.5"/>
    </g>
    <ellipse cx="9.4" cy="3.3" rx="0.55" ry="0.55" fill="#0a0e16" opacity="0.55"/>
    <ellipse cx="14.6" cy="3.3" rx="0.55" ry="0.55" fill="#0a0e16" opacity="0.55"/>
    <circle cx="10.7" cy="5.2" r="0.44" fill="#0a0e16"/>
    <circle cx="13.3" cy="5.2" r="0.44" fill="#0a0e16"/>
    <circle cx="10.84" cy="5.05" r="0.16" fill="#fff"/>
    <circle cx="13.44" cy="5.05" r="0.16" fill="#fff"/>
    <ellipse cx="12" cy="7.5" rx="1.9" ry="1.25" fill="#0a0e16" opacity="0.35"/>
    <ellipse cx="12" cy="6.7" rx="0.95" ry="0.65" fill="#0a0e16"/>
    <ellipse cx="11.8" cy="6.55" rx="0.24" ry="0.17" fill="#fff" opacity="0.6"/>
    <path d="M 12 7.4 L 12 8.1 M 11.25 8.25 Q 12 8.7 12.75 8.25" stroke="#0a0e16" stroke-width="0.45" stroke-linecap="round" fill="none"/>
    <path d="M 12 11 L 12 16.5" stroke="#0a0e16" stroke-width="0.55" opacity="0.45" fill="none" stroke-linecap="round"/>
    <ellipse cx="3.5" cy="13" rx="0.6" ry="0.4" fill="#fff" opacity="0.22"/>
    <ellipse cx="20.5" cy="13" rx="0.6" ry="0.4" fill="#fff" opacity="0.22"/>
    <path d="M 2.3 15.5 Q 4 16 5.7 15.5" stroke="#0a0e16" stroke-width="0.35" opacity="0.55" fill="none" stroke-linecap="round"/>
    <path d="M 18.3 15.5 Q 20 16 21.7 15.5" stroke="#0a0e16" stroke-width="0.35" opacity="0.55" fill="none" stroke-linecap="round"/>
    <path d="M 9 16.5 L 9.5 19.5 M 12 16.8 L 12 19.8 M 15 16.5 L 14.5 19.5" stroke="#0a0e16" stroke-width="0.35" opacity="0.5" fill="none" stroke-linecap="round"/>
    <path d="M 7 16 Q 7.5 17 8 19" stroke="#0a0e16" stroke-width="0.3" opacity="0.45" fill="none" stroke-linecap="round"/>
    <path d="M 17 16 Q 16.5 17 16 19" stroke="#0a0e16" stroke-width="0.3" opacity="0.45" fill="none" stroke-linecap="round"/>
    <path d="M 7 12.5 L 12 16.7 L 17 12.5" stroke="#fff" stroke-width="2.2" stroke-linecap="round" stroke-linejoin="round" fill="none"/>
  </g>
</svg>
