<svg width="180" height="180" viewBox="0 0 180 180" xmlns="http://www.w3.org/2000/svg">
  <defs>
    <linearGradient id="bg" x1="0" y1="0" x2="0" y2="1">
      <stop offset="0" stop-color="#1a2030"/>
      <stop offset="1" stop-color="#0a0e16"/>
    </linearGradient>
  </defs>
  <rect width="180" height="180" fill="url(#bg)" rx="36"/>
  <g transform="translate(18,18) scale(6)">
    <g fill="#f59e0b">
      <rect x="9.5" y="0.5" width="5" height="0.7" rx="0.35"/>
      <rect x="8.3" y="0" width="1.4" height="1.7" rx="0.4"/>
      <rect x="14.3" y="0" width="1.4" height="1.7" rx="0.4"/>
      <rect x="9.2" y="1.4" width="1.2" height="1.8" rx="0.6"/>
      <rect x="13.6" y="1.4" width="1.2" height="1.8" rx="0.6"/>
      <ellipse cx="9.5" cy="5" rx="1.8" ry="1.9"/>
      <ellipse cx="14.5" cy="5" rx="1.8" ry="1.9"/>
      <ellipse cx="12" cy="9" rx="7" ry="2.2"/>
      <ellipse cx="12" cy="12.5" rx="6.5" ry="3.2"/>
      <path d="M 6 13 L 8.5 19 L 15.5 19 L 18 13 Z"/>
      <ellipse cx="9.8" cy="21" rx="2.3" ry="2.6"/>
      <ellipse cx="14.2" cy="21" rx="2.3" ry="2.6"/>
      <circle cx="10" cy="6.5" r="1"/>
      <circle cx="14" cy="6.5" r="1"/>
      <ellipse cx="12" cy="8.2" rx="2.3" ry="1.9"/>
    </g>
    <path d="M 8.8 11 L 12 14 L 15.2 11" stroke="#fff" stroke-width="1.2" stroke-linecap="round" stroke-linejoin="round" fill="none"/>
    <ellipse cx="12" cy="8.9" rx="1.1" ry="0.7" fill="#0a0e16" opacity="0.5"/>
    <circle cx="11" cy="7.7" r="0.32" fill="#0a0e16"/>
    <circle cx="13" cy="7.7" r="0.32" fill="#0a0e16"/>
    <ellipse cx="12" cy="8.6" rx="0.5" ry="0.35" fill="#0a0e16"/>
  </g>
</svg>
