<svg width="32" height="32" viewBox="0 0 24 24" xmlns="http://www.w3.org/2000/svg">
  <rect width="24" height="24" fill="#0a0e16" rx="4"/>
  <g fill="#f59e0b">
    <circle cx="8.5" cy="3.5" r="1.55"/>
    <circle cx="15.5" cy="3.5" r="1.55"/>
    <ellipse cx="12" cy="6.5" rx="4.2" ry="3.7"/>
    <ellipse cx="12" cy="9.2" rx="2.3" ry="1.7"/>
    <ellipse cx="12" cy="12.7" rx="6.8" ry="1.8"/>
    <circle cx="5" cy="12.5" r="1.9"/>
    <circle cx="19" cy="12.5" r="1.9"/>
    <circle cx="4.5" cy="14.8" r="1.7"/>
    <circle cx="19.5" cy="14.8" r="1.7"/>
    <circle cx="4.5" cy="17.2" r="1.5"/>
    <circle cx="19.5" cy="17.2" r="1.5"/>
    <circle cx="4.5" cy="19.4" r="1.4"/>
    <circle cx="19.5" cy="19.4" r="1.4"/>
    <ellipse cx="12" cy="14.2" rx="5.4" ry="2.8"/>
    <ellipse cx="12" cy="18.2" rx="4.6" ry="2.7"/>
    <ellipse cx="9.5" cy="21.8" rx="2.4" ry="2.1"/>
    <ellipse cx="14.5" cy="21.8" rx="2.4" ry="2.1"/>
  </g>
  <circle cx="8.5" cy="3.7" r="0.75" fill="#fda4af" opacity="0.65"/>
  <circle cx="15.5" cy="3.7" r="0.75" fill="#fda4af" opacity="0.65"/>
  <ellipse cx="10.5" cy="6.5" rx="0.7" ry="0.88" fill="#0a0e16"/>
  <ellipse cx="13.5" cy="6.5" rx="0.7" ry="0.88" fill="#0a0e16"/>
  <circle cx="10.72" cy="6.22" r="0.3" fill="#fff"/>
  <circle cx="13.72" cy="6.22" r="0.3" fill="#fff"/>
  <circle cx="10.3" cy="6.85" r="0.14" fill="#fff"/>
  <circle cx="13.3" cy="6.85" r="0.14" fill="#fff"/>
  <ellipse cx="8.6" cy="7.9" rx="0.85" ry="0.5" fill="#f87171" opacity="0.65"/>
  <ellipse cx="15.4" cy="7.9" rx="0.85" ry="0.5" fill="#f87171" opacity="0.65"/>
  <ellipse cx="12" cy="9.4" rx="2.1" ry="1.4" fill="#0a0e16" opacity="0.25"/>
  <ellipse cx="12" cy="8.55" rx="0.75" ry="0.55" fill="#0a0e16"/>
  <ellipse cx="11.85" cy="8.4" rx="0.2" ry="0.15" fill="#fff" opacity="0.65"/>
  <path d="M 12 9.2 L 12 9.7 M 10.7 9.85 Q 12 10.7 13.3 9.85" stroke="#0a0e16" stroke-width="0.5" stroke-linecap="round" fill="none"/>
  <ellipse cx="4" cy="14.4" rx="0.5" ry="0.35" fill="#fff" opacity="0.22"/>
  <ellipse cx="20" cy="14.4" rx="0.5" ry="0.35" fill="#fff" opacity="0.22"/>
  <path d="M 8.5 13.5 L 12 16.5 L 15.5 13.5" stroke="#fff" stroke-width="1.8" stroke-linecap="round" stroke-linejoin="round" fill="none"/>
</svg>
