<svg width="32" height="32" viewBox="0 0 24 24" xmlns="http://www.w3.org/2000/svg">
  <rect width="24" height="24" fill="#fce7eb" rx="4"/>
  <path d="M 0.3 2.4 Q 12 4.6 23.7 2.4 L 23.7 3.25 Q 12 5.45 0.3 3.25 Z" fill="#2d2840" stroke="#1a1530" stroke-width="0.3"/>
  <ellipse cx="1.1" cy="2.95" rx="1.0" ry="2.6" fill="#2d2840" stroke="#1a1530" stroke-width="0.3"/>
  <ellipse cx="2.4" cy="2.95" rx="0.75" ry="2.1" fill="#2d2840" stroke="#1a1530" stroke-width="0.3"/>
  <ellipse cx="3.4" cy="2.95" rx="0.5" ry="1.5" fill="#2d2840" stroke="#1a1530" stroke-width="0.3"/>
  <ellipse cx="20.6" cy="2.95" rx="0.5" ry="1.5" fill="#2d2840" stroke="#1a1530" stroke-width="0.3"/>
  <ellipse cx="21.6" cy="2.95" rx="0.75" ry="2.1" fill="#2d2840" stroke="#1a1530" stroke-width="0.3"/>
  <ellipse cx="22.9" cy="2.95" rx="1.0" ry="2.6" fill="#2d2840" stroke="#1a1530" stroke-width="0.3"/>
  <ellipse cx="4.7" cy="9" rx="1.7" ry="6" fill="#2d2840" stroke="#1a1530" stroke-width="0.4"/>
  <ellipse cx="19.3" cy="9" rx="1.7" ry="6" fill="#2d2840" stroke="#1a1530" stroke-width="0.4"/>
  <circle cx="4.7" cy="3.5" r="1.4" fill="#2d2840" stroke="#1a1530" stroke-width="0.4"/>
  <circle cx="19.3" cy="3.5" r="1.4" fill="#2d2840" stroke="#1a1530" stroke-width="0.4"/>
  <circle cx="9" cy="4.5" r="1.5" fill="#2d2840" stroke="#1a1530" stroke-width="0.4"/>
  <circle cx="15" cy="4.5" r="1.5" fill="#2d2840" stroke="#1a1530" stroke-width="0.4"/>
  <circle cx="9" cy="4.8" r="0.85" fill="#f8b5c2"/>
  <circle cx="15" cy="4.8" r="0.85" fill="#f8b5c2"/>
  <path d="M 3.6 11.5 Q 3 14 3.5 17 Q 4 20.5 7 21.5 Q 9.5 22.2 12 22.2 Q 14.5 22.2 17 21.5 Q 20 20.5 20.5 17 Q 21 14 20.4 11.5 Q 19 10.5 17 10.3 Q 14.5 10 12 10 Q 9.5 10 7 10.3 Q 5 10.5 3.6 11.5 Z" fill="#2d2840" stroke="#1a1530" stroke-width="0.4"/>
  <ellipse cx="9.4" cy="21.5" rx="2.1" ry="2.1" fill="#2d2840" stroke="#1a1530" stroke-width="0.4"/>
  <ellipse cx="14.6" cy="21.5" rx="2.1" ry="2.1" fill="#2d2840" stroke="#1a1530" stroke-width="0.4"/>
  <ellipse cx="9.4" cy="22.4" rx="0.85" ry="0.42" fill="#f8b5c2"/>
  <ellipse cx="14.6" cy="22.4" rx="0.85" ry="0.42" fill="#f8b5c2"/>
  <ellipse cx="12" cy="7.6" rx="4.1" ry="3.6" fill="#2d2840" stroke="#1a1530" stroke-width="0.4"/>
  <ellipse cx="12" cy="9.8" rx="2.15" ry="1.6" fill="#e8d4a8" stroke="#1a1530" stroke-width="0.3"/>
  <ellipse cx="10.3" cy="7.3" rx="0.65" ry="0.92" fill="#1a1530"/>
  <ellipse cx="13.7" cy="7.3" rx="0.65" ry="0.92" fill="#1a1530"/>
  <circle cx="10.5" cy="7" r="0.3" fill="#fff"/>
  <circle cx="13.9" cy="7" r="0.3" fill="#fff"/>
  <circle cx="10.06" cy="7.62" r="0.14" fill="#fff"/>
  <circle cx="13.46" cy="7.62" r="0.14" fill="#fff"/>
  <ellipse cx="12" cy="9.25" rx="0.6" ry="0.45" fill="#1a1530"/>
  <ellipse cx="11.85" cy="9.13" rx="0.18" ry="0.13" fill="#fff" opacity="0.75"/>
  <path d="M 10.95 10.25 Q 12 11.2 13.05 10.25 Q 12 10.65 10.95 10.25 Z" fill="#f87171" stroke="#1a1530" stroke-width="0.3" stroke-linecap="round" stroke-linejoin="round"/>
  <path d="M 9 13.5 L 12 16.2 L 15 13.5" stroke="#fff" stroke-width="1.6" stroke-linecap="round" stroke-linejoin="round" fill="none"/>
</svg>
